<?xml version="1.0" encoding="UTF-8" standalone="no"?>
<svg
   xmlns:dc="http://purl.org/dc/elements/1.1/"
   xmlns:cc="http://creativecommons.org/ns#"
   xmlns:rdf="http://www.w3.org/1999/02/22-rdf-syntax-ns#"
   xmlns:svg="http://www.w3.org/2000/svg"
   xmlns="http://www.w3.org/2000/svg"
   viewBox="0 0 1440 1440"
   height="1440"
   width="1440"
   xml:space="preserve"
   id="svg2"
   version="1.1"><metadata
     id="metadata8"><rdf:RDF><cc:Work
         rdf:about=""><dc:format>image/svg+xml</dc:format><dc:type
           rdf:resource="http://purl.org/dc/dcmitype/StillImage" /></cc:Work></rdf:RDF></metadata><defs
     id="defs6"><clipPath
       id="clipPath18"
       clipPathUnits="userSpaceOnUse"><path
         id="path16"
         d="M 0,1080 H 1080 V 0 H 0 Z" /></clipPath><clipPath
       id="clipPath48"
       clipPathUnits="userSpaceOnUse"><path
         id="path46"
         d="M 0,1080 H 1080 V 0 H 0 Z" /></clipPath><clipPath
       id="clipPath104"
       clipPathUnits="userSpaceOnUse"><path
         id="path102"
         d="M 0,1080 H 1080 V 0 H 0 Z" /></clipPath></defs><g
     transform="matrix(1.3333333,0,0,-1.3333333,0,1440)"
     id="g10"><g
       id="g12"><g
         clip-path="url(#clipPath18)"
         id="g14"><g
           transform="translate(178.3047,580.1543)"
           id="g20"><path
             id="path22"
             style="fill:#231f20;fill-opacity:1;fill-rule:nonzero;stroke:none"
             d="m 0,0 c -1.743,5.114 -4.476,9.61 -8.199,13.487 -3.723,3.877 -8.12,6.805 -13.19,8.785 -4.119,1.65 -8.555,2.475 -13.309,2.475 -7.763,0 -14.893,-2.227 -21.388,-6.682 -6.497,-4.454 -11.17,-10.558 -14.022,-18.313 l -0.475,-1.484 z m -34.698,52.958 c 9.031,0 18.379,-2.269 28.044,-6.805 9.664,-4.537 17.903,-12.003 24.716,-22.396 7.446,-11.714 11.17,-24.334 11.17,-37.862 0,-3.63 -0.238,-7.177 -0.713,-10.642 l -0.476,0.248 v -0.248 l -98.389,-2.722 c 1.901,-5.444 4.753,-10.187 8.555,-14.229 3.803,-4.042 8.239,-7.053 13.31,-9.032 4.119,-1.65 8.555,-2.475 13.308,-2.475 5.387,0 10.576,1.113 15.567,3.341 4.99,2.227 9.229,5.403 12.714,9.527 L 19.013,-50.73 C 13.15,-60.134 5.387,-67.558 -4.278,-73.002 c -9.664,-5.444 -19.963,-8.167 -30.895,-8.167 -9.189,0 -18.577,2.269 -28.162,6.806 -9.585,4.537 -17.785,12.085 -24.598,22.643 -7.605,11.713 -11.407,24.334 -11.407,37.862 0,7.919 1.426,15.838 4.278,23.757 4.753,12.868 12.675,23.262 23.766,31.181 11.09,7.919 23.29,11.878 36.598,11.878" /></g><g
           transform="translate(320.897,596.6108)"
           id="g24"><path
             id="path26"
             style="fill:#231f20;fill-opacity:1;fill-rule:nonzero;stroke:none"
             d="m 0,0 c -6.337,5.527 -14.021,8.291 -23.053,8.291 -9.189,0 -16.952,-2.764 -23.29,-8.291 -6.337,-5.526 -9.506,-13.074 -9.506,-22.643 v -74.982 h -26.617 v 74.982 c 0,11.548 2.733,21.818 8.199,30.81 5.466,8.991 12.873,15.961 22.221,20.911 9.189,4.784 18.854,7.176 28.993,7.176 10.457,0 20.201,-2.433 29.232,-7.3 9.031,-4.867 16.398,-11.672 22.102,-20.416 5.546,-9.239 8.318,-19.633 8.318,-31.181 L 36.124,-97.625 H 9.506 v 74.982 C 9.506,-13.074 6.337,-5.526 0,0" /></g><path
           id="path28"
           style="fill:#231f20;fill-opacity:1;fill-rule:nonzero;stroke:none"
           d="m 391.002,632.865 h 31.133 V 498.491 h -31.133 z m -2.614,29.944 c 0,4.949 1.703,9.197 5.109,12.744 3.407,3.547 7.565,5.321 12.477,5.321 4.912,0 9.07,-1.774 12.477,-5.321 3.406,-3.547 5.11,-7.795 5.11,-12.744 0,-5.115 -1.704,-9.446 -5.11,-12.993 -3.407,-3.546 -7.565,-5.32 -12.477,-5.32 -4.912,0 -9.07,1.774 -12.477,5.32 -3.406,3.547 -5.109,7.878 -5.109,12.993" /><g
           transform="translate(500.3213,532.1465)"
           id="g30"><path
             id="path32"
             style="fill:#231f20;fill-opacity:1;fill-rule:nonzero;stroke:none"
             d="m 0,0 c 6.021,-3.465 12.279,-5.197 18.775,-5.197 6.655,0 12.873,1.773 18.656,5.32 5.783,3.547 10.338,8.373 13.666,14.477 3.327,6.269 4.99,12.786 4.99,19.55 0,6.929 -1.703,13.404 -5.109,19.426 -3.407,6.022 -8.041,10.765 -13.904,14.229 -5.862,3.465 -12.12,5.197 -18.774,5.197 -6.654,0 -12.873,-1.773 -18.656,-5.32 -5.783,-3.547 -10.338,-8.373 -13.665,-14.477 -3.328,-6.104 -4.991,-12.621 -4.991,-19.55 0,-6.929 1.703,-13.405 5.109,-19.426 C -10.496,8.207 -5.862,3.464 0,0 m -14.021,91.81 c 9.664,6.104 20.438,9.156 32.321,9.156 11.565,0 22.3,-2.928 32.202,-8.785 9.902,-5.857 17.785,-13.9 23.646,-24.128 5.863,-10.064 8.794,-21.2 8.794,-33.408 0,-12.043 -2.773,-23.18 -8.318,-33.408 2.852,-7.589 4.278,-15.343 4.278,-23.262 0,-10.723 -2.456,-20.58 -7.368,-29.572 -4.911,-8.991 -11.803,-15.962 -20.676,-20.911 -8.872,-4.784 -17.745,-7.177 -26.617,-7.177 -8.08,0 -15.844,1.733 -23.29,5.198 -7.447,3.464 -13.864,8.413 -19.25,14.847 l 21.151,12.126 c 3.01,-2.639 6.377,-4.661 10.101,-6.063 3.723,-1.402 7.485,-2.104 11.288,-2.104 5.229,0 10.259,1.403 15.091,4.207 4.833,2.805 8.437,6.435 10.814,10.889 2.376,4.125 3.564,8.909 3.564,14.354 0,1.979 -0.079,3.216 -0.237,3.711 -10.616,-7.094 -22.182,-10.641 -34.698,-10.641 -11.566,0 -22.3,2.97 -32.202,8.909 -9.903,5.94 -17.785,14.023 -23.647,24.252 -5.862,10.063 -8.793,21.282 -8.793,33.655 0,12.043 2.851,23.22 8.555,33.532 5.704,10.311 13.467,18.519 23.291,24.623" /></g><g
           transform="translate(626.751,617.2744)"
           id="g34"><path
             id="path36"
             style="fill:#231f20;fill-opacity:1;fill-rule:nonzero;stroke:none"
             d="m 0,0 c 8.397,10.394 20.122,15.59 35.174,15.59 6.654,0 13.308,-1.443 19.963,-4.33 6.654,-2.887 12.675,-6.97 18.061,-12.25 4.595,5.28 10.022,9.363 16.28,12.25 6.258,2.887 12.873,4.33 19.844,4.33 6.813,0 13.983,-2.062 21.508,-6.186 7.526,-4.125 13.745,-9.652 18.655,-16.58 5.071,-7.26 7.606,-15.426 7.606,-24.5 v -86.365 h -31.133 v 85.375 c 0,5.445 -2.139,9.981 -6.417,13.611 -4.277,3.63 -9.189,5.444 -14.734,5.444 -6.972,0 -12.993,-3.134 -18.062,-9.403 2.218,-6.599 3.327,-13.363 3.327,-20.293 l -0.475,-74.982 H 62.979 v 74.982 c 0,6.27 -1.386,11.796 -4.159,16.58 -2.772,4.785 -6.456,8.415 -11.05,10.889 -4.754,2.31 -8.953,3.465 -12.596,3.465 -7.606,0 -13.032,-2.393 -16.279,-7.177 -3.249,-4.784 -4.873,-12.703 -4.873,-23.757 v -74.982 h -26.618 v 74.982 c 0,18.478 4.2,32.913 12.596,43.307" /></g><g
           transform="translate(897.9121,600.1992)"
           id="g38"><path
             id="path40"
             style="fill:#231f20;fill-opacity:1;fill-rule:nonzero;stroke:none"
             d="m 0,0 c -5.703,3.464 -11.962,5.197 -18.774,5.197 -6.655,0 -12.873,-1.774 -18.657,-5.321 -5.783,-3.547 -10.338,-8.29 -13.665,-14.229 -3.485,-5.774 -5.228,-12.291 -5.228,-19.55 0,-6.929 1.703,-13.405 5.109,-19.426 3.406,-6.022 7.962,-10.765 13.665,-14.23 5.546,-3.629 11.804,-5.444 18.776,-5.444 6.654,0 12.873,1.774 18.655,5.321 5.783,3.547 10.418,8.29 13.903,14.229 3.327,5.939 4.991,12.456 4.991,19.55 0,6.929 -1.704,13.404 -5.11,19.426 C 10.259,-8.455 5.704,-3.629 0,0 m -18.774,-100.966 c -11.567,0 -22.3,3.011 -32.203,9.032 -9.902,6.022 -17.706,14.23 -23.409,24.623 -5.862,10.063 -8.794,21.2 -8.794,33.408 0,12.044 2.892,23.221 8.675,33.532 5.783,10.311 13.665,18.518 23.647,24.623 9.823,5.939 20.517,8.909 32.084,8.909 11.407,0 22.062,-2.929 31.964,-8.786 C 23.093,18.519 30.975,10.641 36.837,0.743 42.699,-9.321 45.63,-20.21 45.63,-31.923 l -0.237,-68.301 H 18.775 v 11.878 c -11.408,-8.414 -23.924,-12.62 -37.549,-12.62" /></g></g></g><g
       id="g42"><g
         clip-path="url(#clipPath48)"
         id="g44"><g
           transform="translate(413.5414,726.127)"
           id="g50"><path
             id="path52"
             style="fill:#f1bc1f;fill-opacity:1;fill-rule:nonzero;stroke:none"
             d="m 0,0 v 19.456 c 0,7.12 -0.456,14.53 0.584,21.593 3.497,23.733 20.814,44.017 43.832,50.905 13.845,4.144 29.693,2.663 44.015,2.663 h 77.884 106.151 109.064 86.875 c 13.181,0 26.365,0.079 39.547,0 19.198,-0.115 37.363,-8.531 49.419,-23.602 9.378,-11.723 13.525,-26.032 13.538,-40.873 0.017,-18.412 0,-36.824 0,-55.236 v -101.601 -107.71 -73.372 c 0,-3.862 0.032,-7.726 0,-11.588 -0.191,-23.691 -13.477,-45.223 -34.601,-55.985 -15.59,-7.944 -32.848,-6.557 -49.735,-6.557 H 411.402 306.918 197.194 107.754 c -14.683,0 -29.367,-0.032 -44.05,0 -15.867,0.035 -31.22,5.292 -43.046,16.078 -8.748,7.979 -15.192,18.191 -18.365,29.617 C 0.237,-328.81 0,-321.428 0,-313.828 v 40.209 c 0,9.652 -15,9.668 -15,0 v -42.085 c 0,-22.395 7.248,-43.604 23.635,-59.4 14.651,-14.121 34.16,-21.689 54.435,-21.803 4.424,-0.025 8.849,0 13.273,0 h 69.615 104.142 112.387 94.49 49.201 c 14.672,0 29.004,3.26 41.705,10.806 22.53,13.386 36.968,37.779 37.972,63.944 0.555,14.468 0.054,29.041 0.054,43.516 v 97.806 111.434 83.189 c 0,5.782 0.015,11.565 0,17.348 -0.05,19.391 -6.775,37.864 -19.607,52.464 -14.629,16.645 -36.129,25.866 -58.165,26.017 -4.033,0.028 -8.068,0 -12.101,0 H 428.524 324.757 212.212 116.967 65.405 c -12.966,0 -25.462,-2.322 -37.203,-8.022 C 4.673,90.173 -11.281,66.808 -14.431,41.024 -16.076,27.563 -15,13.533 -15,0 -15,-9.652 0,-9.668 0,0" /></g><g
           transform="translate(463.7241,364.7393)"
           id="g54"><path
             id="path56"
             style="fill:#231f20;fill-opacity:1;fill-rule:nonzero;stroke:none"
             d="m 0,0 h -9.701 v 60.853 h -22.244 v 8.525 H 22.244 V 60.853 H 0 Z" /></g><g
           transform="translate(515.3643,392.0791)"
           id="g58"><path
             id="path60"
             style="fill:#231f20;fill-opacity:1;fill-rule:nonzero;stroke:none"
             d="m 0,0 c -0.065,1.828 -0.376,3.543 -0.931,5.145 -0.555,1.599 -1.372,2.988 -2.449,4.164 -1.078,1.175 -2.418,2.107 -4.018,2.793 -1.602,0.685 -3.479,1.029 -5.635,1.029 -1.96,0 -3.806,-0.344 -5.536,-1.029 -1.732,-0.686 -3.234,-1.618 -4.508,-2.793 C -24.351,8.133 -25.396,6.744 -26.212,5.145 -27.03,3.543 -27.503,1.828 -27.633,0 Z m 9.407,-3.724 v -1.568 c 0,-0.523 -0.033,-1.046 -0.097,-1.567 h -36.943 c 0.064,-1.949 0.505,-3.781 1.322,-5.499 0.817,-1.719 1.912,-3.212 3.283,-4.477 1.372,-1.265 2.955,-2.254 4.753,-2.967 1.796,-0.714 3.707,-1.07 5.733,-1.07 3.135,0 5.845,0.685 8.133,2.058 2.285,1.372 4.081,3.037 5.389,4.997 l 6.468,-5.194 c -2.484,-3.292 -5.407,-5.716 -8.771,-7.271 -3.365,-1.554 -7.104,-2.331 -11.219,-2.331 -3.528,0 -6.796,0.588 -9.8,1.763 -3.005,1.176 -5.585,2.825 -7.741,4.949 -2.156,2.122 -3.855,4.686 -5.096,7.692 -1.241,3.004 -1.862,6.336 -1.862,9.995 0,3.592 0.605,6.908 1.816,9.946 1.212,3.038 2.897,5.634 5.058,7.79 2.16,2.156 4.714,3.837 7.66,5.047 2.946,1.208 6.12,1.813 9.525,1.813 3.403,0 6.497,-0.556 9.28,-1.666 C -0.92,17.604 1.437,16.004 3.369,13.914 5.3,11.823 6.79,9.292 7.837,6.32 8.884,3.347 9.407,0 9.407,-3.724" /></g><g
           transform="translate(542.998,391.001)"
           id="g62"><path
             id="path64"
             style="fill:#231f20;fill-opacity:1;fill-rule:nonzero;stroke:none"
             d="m 0,0 h 0.294 l 19.5,20.186 H 32.141 L 10.387,-0.882 34.003,-26.262 H 21.264 L 0.294,-2.156 H 0 V -26.262 H -9.212 V 47.819 H 0 Z" /></g><g
           transform="translate(589.6406,411.1865)"
           id="g66"><path
             id="path68"
             style="fill:#231f20;fill-opacity:1;fill-rule:nonzero;stroke:none"
             d="m 0,0 c 0.13,-1.176 0.229,-2.498 0.294,-3.968 0.064,-1.47 0.098,-2.695 0.098,-3.675 h 0.294 c 0.587,1.241 1.387,2.401 2.401,3.479 1.012,1.078 2.171,2.024 3.478,2.842 1.306,0.815 2.744,1.453 4.312,1.911 1.567,0.456 3.2,0.685 4.899,0.685 3.004,0 5.586,-0.506 7.742,-1.518 2.156,-1.014 3.952,-2.369 5.389,-4.068 1.437,-1.699 2.499,-3.691 3.185,-5.977 0.686,-2.287 1.029,-4.736 1.029,-7.349 V -46.447 H 23.91 v 25.771 c 0,1.895 -0.147,3.691 -0.441,5.39 -0.294,1.698 -0.833,3.2 -1.617,4.508 -0.784,1.305 -1.862,2.351 -3.234,3.135 -1.372,0.784 -3.136,1.176 -5.291,1.176 -3.66,0 -6.648,-1.388 -8.967,-4.165 -2.319,-2.777 -3.478,-6.484 -3.478,-11.122 v -24.693 h -9.211 v 36.452 c 0,1.24 -0.034,2.842 -0.099,4.802 -0.065,1.96 -0.163,3.69 -0.294,5.193 z" /></g><path
           id="path70"
           style="fill:#231f20;fill-opacity:1;fill-rule:nonzero;stroke:none"
           d="m 643.73,364.739 h -9.211 v 46.447 h 9.211 z m 1.47,63.204 c 0,-1.699 -0.599,-3.103 -1.799,-4.214 -1.198,-1.111 -2.64,-1.666 -4.325,-1.666 -1.684,0 -3.109,0.572 -4.276,1.715 -1.167,1.143 -1.75,2.532 -1.75,4.165 0,1.699 0.583,3.119 1.75,4.263 1.167,1.143 2.592,1.715 4.276,1.715 1.685,0 3.127,-0.572 4.325,-1.715 1.2,-1.144 1.799,-2.564 1.799,-4.263" /><g
           transform="translate(665.2871,391.001)"
           id="g72"><path
             id="path74"
             style="fill:#231f20;fill-opacity:1;fill-rule:nonzero;stroke:none"
             d="m 0,0 h 0.294 l 19.5,20.186 H 32.141 L 10.387,-0.882 34.003,-26.262 H 21.264 L 0.294,-2.156 H 0 V -26.262 H -9.212 V 47.819 H 0 Z" /></g><g
           transform="translate(759.1621,421.2803)"
           id="g76"><path
             id="path78"
             style="fill:#231f20;fill-opacity:1;fill-rule:nonzero;stroke:none"
             d="m 0,0 c -1.372,1.894 -3.233,3.444 -5.585,4.654 -2.352,1.208 -4.998,1.813 -7.937,1.813 -1.569,0 -3.153,-0.213 -4.753,-0.637 -1.602,-0.426 -3.055,-1.111 -4.361,-2.058 -1.307,-0.948 -2.369,-2.124 -3.184,-3.527 -0.818,-1.406 -1.225,-3.087 -1.225,-5.047 0,-1.895 0.375,-3.478 1.126,-4.753 0.751,-1.273 1.765,-2.351 3.038,-3.233 1.275,-0.882 2.777,-1.634 4.508,-2.254 1.73,-0.621 3.576,-1.259 5.536,-1.911 2.352,-0.719 4.736,-1.535 7.153,-2.449 2.416,-0.916 4.606,-2.124 6.566,-3.626 1.96,-1.503 3.559,-3.381 4.802,-5.634 1.24,-2.254 1.862,-5.113 1.862,-8.574 0,-3.594 -0.671,-6.713 -2.01,-9.359 -1.339,-2.645 -3.12,-4.835 -5.34,-6.565 -2.221,-1.732 -4.786,-3.023 -7.692,-3.871 -2.907,-0.848 -5.897,-1.274 -8.966,-1.274 -4.378,0 -8.608,0.85 -12.69,2.548 -4.083,1.697 -7.464,4.213 -10.142,7.545 l 7.545,6.369 c 1.632,-2.417 3.821,-4.377 6.565,-5.879 2.745,-1.504 5.716,-2.254 8.917,-2.254 1.633,0 3.266,0.229 4.9,0.686 1.633,0.457 3.119,1.176 4.459,2.156 1.338,0.98 2.432,2.205 3.282,3.675 0.849,1.47 1.274,3.249 1.274,5.34 0,2.091 -0.441,3.837 -1.323,5.243 -0.882,1.403 -2.074,2.597 -3.576,3.576 -1.504,0.981 -3.251,1.814 -5.243,2.499 -1.993,0.686 -4.1,1.387 -6.32,2.107 -2.222,0.652 -4.41,1.453 -6.566,2.401 -2.155,0.946 -4.083,2.155 -5.781,3.625 -1.699,1.471 -3.071,3.283 -4.115,5.439 -1.046,2.156 -1.569,4.833 -1.569,8.036 0,3.462 0.701,6.433 2.108,8.917 1.403,2.481 3.233,4.539 5.487,6.172 2.254,1.633 4.802,2.826 7.644,3.578 2.84,0.75 5.698,1.127 8.574,1.127 4.05,0 7.839,-0.72 11.366,-2.157 3.528,-1.437 6.37,-3.365 8.525,-5.781 z" /></g><g
           transform="translate(810.0176,392.0791)"
           id="g80"><path
             id="path82"
             style="fill:#231f20;fill-opacity:1;fill-rule:nonzero;stroke:none"
             d="m 0,0 c -0.066,1.828 -0.377,3.543 -0.932,5.145 -0.555,1.599 -1.371,2.988 -2.449,4.164 -1.078,1.175 -2.418,2.107 -4.017,2.793 -1.602,0.685 -3.479,1.029 -5.635,1.029 -1.96,0 -3.807,-0.344 -5.536,-1.029 -1.733,-0.686 -3.235,-1.618 -4.508,-2.793 C -24.351,8.133 -25.396,6.744 -26.213,5.145 -27.03,3.543 -27.504,1.828 -27.634,0 Z m 9.407,-3.724 v -1.568 c 0,-0.523 -0.034,-1.046 -0.098,-1.567 h -36.943 c 0.065,-1.949 0.505,-3.781 1.323,-5.499 0.816,-1.719 1.911,-3.212 3.283,-4.477 1.372,-1.265 2.955,-2.254 4.753,-2.967 1.796,-0.714 3.707,-1.07 5.732,-1.07 3.136,0 5.846,0.685 8.133,2.058 2.286,1.372 4.082,3.037 5.389,4.997 l 6.468,-5.194 c -2.483,-3.292 -5.406,-5.716 -8.77,-7.271 -3.365,-1.554 -7.105,-2.331 -11.22,-2.331 -3.528,0 -6.795,0.588 -9.799,1.763 -3.006,1.176 -5.586,2.825 -7.742,4.949 -2.155,2.122 -3.854,4.686 -5.095,7.692 -1.242,3.004 -1.862,6.336 -1.862,9.995 0,3.592 0.604,6.908 1.816,9.946 1.211,3.038 2.897,5.634 5.057,7.79 2.16,2.156 4.715,3.837 7.66,5.047 2.946,1.208 6.12,1.813 9.526,1.813 3.403,0 6.496,-0.556 9.28,-1.666 2.781,-1.112 5.138,-2.712 7.07,-4.802 C 5.299,11.823 6.789,9.292 7.836,6.32 8.883,3.347 9.407,0 9.407,-3.724" /></g><g
           transform="translate(828.1455,405.9932)"
           id="g84"><path
             id="path86"
             style="fill:#231f20;fill-opacity:1;fill-rule:nonzero;stroke:none"
             d="M 0,0 C -0.065,1.96 -0.163,3.69 -0.294,5.193 H 8.428 C 8.558,4.018 8.656,2.661 8.722,1.127 8.786,-0.408 8.819,-1.666 8.819,-2.646 h 0.294 c 1.307,2.745 3.217,4.949 5.733,6.615 2.514,1.666 5.341,2.499 8.476,2.499 1.437,0 2.646,-0.132 3.626,-0.392 l -0.392,-8.525 c -1.308,0.326 -2.711,0.489 -4.213,0.489 -2.222,0 -4.15,-0.408 -5.782,-1.225 -1.634,-0.817 -2.989,-1.911 -4.067,-3.282 -1.078,-1.372 -1.879,-2.957 -2.4,-4.753 C 9.57,-13.018 9.31,-14.895 9.31,-16.854 v -24.4 H 0.099 V -4.802 C 0.099,-3.562 0.064,-1.96 0,0" /></g><g
           transform="translate(881.6484,364.7393)"
           id="g88"><path
             id="path90"
             style="fill:#231f20;fill-opacity:1;fill-rule:nonzero;stroke:none"
             d="m 0,0 h -9.995 l -18.912,46.447 h 10.191 l 13.62,-36.55 h 0.197 l 13.718,36.55 h 9.799 z" /></g><path
           id="path92"
           style="fill:#231f20;fill-opacity:1;fill-rule:nonzero;stroke:none"
           d="m 914.573,364.739 h -9.211 v 46.447 h 9.211 z m 1.47,63.204 c 0,-1.699 -0.6,-3.103 -1.799,-4.214 -1.198,-1.111 -2.64,-1.666 -4.325,-1.666 -1.685,0 -3.109,0.572 -4.276,1.715 -1.167,1.143 -1.75,2.532 -1.75,4.165 0,1.699 0.583,3.119 1.75,4.263 1.167,1.143 2.591,1.715 4.276,1.715 1.685,0 3.127,-0.572 4.325,-1.715 1.199,-1.144 1.799,-2.564 1.799,-4.263" /><g
           transform="translate(951.8096,399.4277)"
           id="g94"><path
             id="path96"
             style="fill:#231f20;fill-opacity:1;fill-rule:nonzero;stroke:none"
             d="m 0,0 c -1.046,1.698 -2.516,3.087 -4.41,4.165 -1.896,1.078 -4.018,1.617 -6.369,1.617 -1.046,0 -2.092,-0.115 -3.136,-0.344 -1.046,-0.229 -1.977,-0.587 -2.793,-1.077 -0.817,-0.49 -1.47,-1.112 -1.96,-1.862 -0.49,-0.752 -0.734,-1.683 -0.734,-2.793 0,-1.96 0.881,-3.414 2.645,-4.36 1.764,-0.948 4.409,-1.813 7.938,-2.597 2.219,-0.523 4.277,-1.144 6.173,-1.862 1.894,-0.719 3.542,-1.616 4.949,-2.695 1.403,-1.078 2.498,-2.368 3.282,-3.871 0.784,-1.503 1.176,-3.266 1.176,-5.291 0,-2.744 -0.524,-5.063 -1.568,-6.957 -1.046,-1.895 -2.434,-3.447 -4.165,-4.655 -1.731,-1.209 -3.708,-2.074 -5.928,-2.597 -2.222,-0.521 -4.507,-0.783 -6.86,-0.783 -3.527,0 -6.973,0.686 -10.338,2.058 -3.365,1.372 -6.158,3.462 -8.378,6.271 l 6.566,5.585 c 1.24,-1.829 2.955,-3.365 5.144,-4.605 2.188,-1.242 4.589,-1.862 7.203,-1.862 1.175,0 2.302,0.114 3.38,0.343 1.079,0.228 2.058,0.604 2.94,1.127 0.882,0.522 1.583,1.208 2.107,2.058 0.522,0.848 0.783,1.925 0.783,3.233 0,2.156 -1.028,3.756 -3.086,4.802 -2.058,1.044 -5.081,2.024 -9.064,2.939 -1.568,0.393 -3.152,0.866 -4.753,1.421 -1.601,0.555 -3.055,1.323 -4.36,2.303 -1.308,0.98 -2.369,2.205 -3.185,3.675 -0.817,1.469 -1.225,3.283 -1.225,5.438 0,2.483 0.505,4.621 1.519,6.419 1.012,1.796 2.335,3.266 3.969,4.409 1.632,1.143 3.494,1.993 5.585,2.548 2.09,0.555 4.246,0.833 6.468,0.833 3.331,0 6.548,-0.654 9.652,-1.96 C 2.269,9.766 4.669,7.872 6.369,5.39 Z" /></g></g></g><g
       id="g98"><g
         clip-path="url(#clipPath104)"
         id="g100"><g
           transform="translate(890.9305,293.3868)"
           id="g106"><path
             id="path108"
             style="fill:#f1bc1f;fill-opacity:1;fill-rule:nonzero;stroke:none"
             d="m 0,0 h -384.253 c -3.234,0 -5.856,2.622 -5.856,5.855 v 9.628 c 0,3.234 2.622,5.855 5.856,5.855 H 0 c 3.234,0 5.855,-2.621 5.855,-5.855 V 5.855 C 5.855,2.622 3.234,0 0,0" /></g><g
           transform="translate(506.6772,314.2246)"
           id="g110"><path
             id="path112"
             style="fill:#f1bc1f;fill-opacity:1;fill-rule:nonzero;stroke:none"
             d="m 0,0 c -2.953,0 -5.355,-2.402 -5.355,-5.355 v -9.627 c 0,-2.954 2.402,-5.356 5.355,-5.356 h 384.253 c 2.954,0 5.356,2.402 5.356,5.356 v 9.627 c 0,2.953 -2.402,5.355 -5.356,5.355 z M 384.253,-21.338 H 0 c -3.504,0 -6.355,2.851 -6.355,6.356 v 9.627 C -6.355,-1.851 -3.504,1 0,1 h 384.253 c 3.505,0 6.356,-2.851 6.356,-6.355 v -9.627 c 0,-3.505 -2.851,-6.356 -6.356,-6.356" /></g></g></g></g></svg>