<?xml version="1.0" standalone="no"?>
<!DOCTYPE svg PUBLIC "-//W3C//DTD SVG 20010904//EN"
 "http://www.w3.org/TR/2001/REC-SVG-20010904/DTD/svg10.dtd">
<svg version="1.0" xmlns="http://www.w3.org/2000/svg"
 width="4500.000000pt" height="4500.000000pt" viewBox="0 0 4500.000000 4500.000000"
 preserveAspectRatio="xMidYMid meet">

<g transform="translate(0.000000,4500.000000) scale(0.100000,-0.100000)"
fill="#000000" stroke="none">
<path d="M16750 28354 c-36 -7 -107 -34 -159 -60 -77 -38 -108 -61 -180 -132
-123 -124 -189 -246 -217 -401 -71 -401 161 -785 536 -887 89 -24 281 -24 370
0 250 67 455 277 526 536 13 47 18 103 19 205 0 119 -4 151 -23 215 -86 274
-309 482 -566 529 -80 15 -226 13 -306 -5z"/>
<path d="M36400 26384 c-475 -55 -835 -183 -1198 -424 -408 -271 -728 -633
-952 -1075 -206 -407 -302 -817 -302 -1290 0 -508 115 -951 357 -1380 153
-271 277 -437 475 -636 393 -395 885 -654 1415 -743 318 -54 683 -45 995 24
304 68 608 198 876 376 l124 82 0 -244 0 -244 559 0 558 0 5 1453 c3 798 1
1511 -3 1582 -31 466 -182 914 -441 1300 -123 185 -195 273 -352 431 -218 217
-440 378 -711 515 -245 124 -519 212 -790 255 -95 15 -531 28 -615 18z m547
-1193 c195 -43 348 -108 515 -220 357 -238 624 -647 704 -1076 27 -141 27
-468 0 -610 -84 -453 -360 -850 -760 -1094 -266 -162 -525 -230 -836 -218
-296 12 -507 81 -762 250 -386 257 -638 645 -720 1107 -20 117 -17 442 6 565
80 433 352 841 721 1081 185 120 375 194 590 230 119 20 423 12 542 -15z"/>
<path d="M5705 26369 c-768 -83 -1511 -543 -1951 -1211 -227 -343 -382 -767
-445 -1218 -18 -127 -18 -573 -1 -700 21 -149 58 -318 97 -451 181 -613 615
-1227 1093 -1547 347 -233 816 -400 1247 -443 147 -15 448 -7 595 16 630 97
1221 424 1634 906 114 132 252 327 240 339 -9 8 -1055 430 -1067 430 -4 0 -38
-32 -74 -71 -198 -210 -516 -377 -828 -435 -150 -28 -452 -26 -595 5 -502 107
-923 471 -1124 970 -14 35 -25 65 -23 66 1 1 922 28 2047 59 1125 32 2050 58
2057 58 14 2 20 37 33 193 68 842 -225 1666 -804 2263 -259 266 -482 419 -821
560 -222 93 -463 163 -680 198 -121 19 -500 27 -630 13z m600 -1199 c419 -90
794 -367 1010 -746 55 -96 111 -233 99 -243 -5 -4 -632 -22 -1394 -39 -762
-18 -1418 -35 -1458 -38 -86 -6 -85 -18 -20 136 212 505 659 856 1205 945 130
21 426 13 558 -15z"/>
<path d="M21325 26369 c-918 -99 -1743 -719 -2142 -1612 -214 -477 -291 -1005
-227 -1545 132 -1122 963 -2077 2039 -2345 235 -58 348 -71 625 -72 251 0 348
9 530 47 294 61 590 180 835 333 48 30 89 55 91 55 11 0 2 -287 -11 -370 -50
-305 -221 -580 -473 -760 -161 -115 -373 -203 -556 -231 -106 -17 -372 -6
-472 20 -189 47 -372 132 -513 239 -46 34 -90 61 -97 58 -8 -3 -207 -116 -444
-252 l-430 -246 72 -81 c426 -472 1067 -757 1704 -757 328 0 701 93 1028 257
529 264 926 733 1120 1323 180 547 177 1113 -10 1692 l-35 108 25 42 c67 116
174 396 226 591 64 243 91 465 91 746 1 394 -59 716 -196 1056 -305 760 -933
1349 -1699 1594 -133 42 -257 71 -413 97 -119 19 -536 27 -668 13z m593 -1188
c191 -41 385 -124 557 -239 142 -95 330 -284 423 -426 206 -313 293 -621 279
-986 -31 -804 -608 -1461 -1372 -1561 -113 -15 -341 -7 -455 16 -497 98 -915
426 -1137 891 -55 117 -106 272 -129 399 -29 153 -26 491 5 635 146 679 649
1178 1296 1286 117 20 412 12 533 -15z"/>
<path d="M12190 26364 c-370 -43 -655 -125 -951 -275 -469 -237 -838 -609
-1064 -1074 -73 -150 -153 -383 -185 -535 -56 -275 -54 -175 -57 -2002 l-4
-1688 560 0 561 0 3 1683 c3 1848 -1 1705 62 1898 132 398 496 699 968 801
139 30 484 33 622 5 138 -28 240 -61 352 -116 401 -196 634 -508 692 -926 8
-52 11 -607 11 -1711 l0 -1634 559 0 559 0 6 1058 c13 1905 12 2277 -2 2387
-65 489 -238 899 -520 1235 -394 470 -948 779 -1572 875 -100 16 -516 29 -600
19z"/>
<path d="M16290 23570 l0 -2800 650 0 650 0 0 2800 0 2800 -650 0 -650 0 0
-2800z"/>
<path d="M27315 26358 c-563 -63 -1002 -325 -1304 -780 -235 -352 -366 -770
-411 -1313 -6 -74 -10 -766 -10 -1797 l0 -1678 555 0 554 0 4 1718 c4 1833 2
1776 51 2012 64 304 191 495 396 593 137 66 221 82 415 82 180 -1 246 -14 425
-87 382 -155 638 -482 727 -928 15 -77 17 -237 20 -1737 l4 -1653 553 0 553 0
7 723 c17 1945 18 2503 6 2627 -15 164 -51 358 -94 505 l-35 119 47 51 c143
155 285 249 459 302 79 24 105 26 243 27 184 1 270 -18 415 -89 214 -105 368
-275 437 -480 l23 -70 3 -1852 2 -1853 650 0 650 0 -3 1923 -3 1922 -26 121
c-72 320 -199 571 -421 830 -311 363 -782 648 -1233 744 -220 47 -530 36 -785
-29 -364 -92 -721 -300 -960 -559 l-64 -69 -85 76 c-364 326 -809 537 -1255
596 -126 16 -380 18 -510 3z"/>
<path d="M22240 16740 l0 -1550 193 2 192 3 5 504 5 503 440 -506 439 -506
264 0 c149 0 262 4 260 9 -1 5 -203 224 -448 487 -245 264 -464 500 -487 525
l-42 45 449 435 c248 239 450 437 450 442 0 4 -114 7 -253 7 l-254 0 -409
-424 -409 -425 -5 997 -5 997 -192 3 -193 2 0 -1550z"/>
<path d="M27335 18278 c-3 -7 -4 -704 -3 -1548 l3 -1535 193 -3 192 -2 0 505
c0 278 3 505 8 504 4 0 203 -226 443 -502 l435 -502 262 -3 c155 -1 262 1 262
7 0 5 -219 244 -487 532 l-487 523 305 295 c167 162 372 362 454 443 l150 148
-256 0 -255 0 -145 -147 c-80 -82 -267 -273 -415 -427 l-269 -279 -3 1002 -2
1001 -190 0 c-143 0 -192 -3 -195 -12z"/>
<path d="M30855 18144 c-243 -44 -414 -130 -556 -281 -119 -127 -179 -256
-199 -433 -27 -235 35 -442 179 -601 118 -131 243 -197 623 -325 154 -52 317
-113 361 -136 103 -54 197 -143 235 -224 25 -54 27 -69 27 -180 0 -118 -1
-121 -37 -195 -94 -189 -284 -293 -538 -292 -229 1 -419 86 -576 257 l-69 75
-157 -132 -156 -131 40 -48 c137 -164 394 -299 673 -354 133 -27 367 -24 503
5 382 81 625 292 714 617 28 106 31 346 5 444 -40 150 -141 299 -265 391 -114
84 -224 133 -537 239 -165 56 -331 118 -369 138 -92 48 -178 129 -213 200 -26
53 -28 66 -28 177 0 112 2 124 28 178 94 191 310 298 572 284 181 -9 331 -75
455 -198 l67 -67 142 142 143 143 -54 48 c-140 127 -323 214 -541 256 -119 23
-352 24 -472 3z"/>
<path d="M17990 17910 l0 -180 465 0 465 0 0 -1270 0 -1270 200 0 200 0 0
1270 0 1270 465 0 465 0 0 180 0 180 -1130 0 -1130 0 0 -180z"/>
<path d="M26539 18066 c-172 -61 -218 -297 -82 -417 53 -46 99 -62 173 -62 76
0 124 19 180 69 70 63 93 172 56 267 -21 57 -97 128 -154 145 -51 15 -127 15
-173 -2z"/>
<path d="M37810 18059 c-164 -74 -201 -281 -71 -402 55 -52 105 -71 181 -71
93 1 185 56 227 137 27 54 29 145 3 205 -55 128 -213 189 -340 131z"/>
<path d="M20793 17180 c-231 -33 -420 -126 -578 -284 -106 -107 -170 -208
-220 -350 -53 -147 -68 -253 -62 -426 10 -293 106 -521 294 -701 135 -128 300
-214 493 -255 116 -25 344 -25 458 -1 213 45 351 118 499 263 57 55 103 105
103 112 0 6 -59 58 -130 116 l-130 104 -88 -87 c-101 -102 -206 -161 -332
-187 -89 -19 -258 -14 -332 10 -234 74 -410 273 -437 493 l-7 63 770 2 771 3
-1 140 c-1 220 -35 371 -120 535 -119 232 -316 378 -589 436 -86 18 -278 26
-362 14z m268 -310 c144 -27 284 -133 346 -260 30 -62 63 -190 63 -245 l0 -25
-574 0 -574 0 13 69 c23 120 103 251 203 335 57 47 189 111 257 124 69 13 201
14 266 2z"/>
<path d="M25095 17175 c-191 -35 -366 -147 -464 -297 l-39 -60 -6 109 c-4 59
-9 132 -12 161 l-5 52 -182 -2 -182 -3 3 -25 c2 -14 6 -451 9 -973 l5 -947
191 2 192 3 5 605 5 605 28 81 c80 238 256 374 482 374 184 -1 308 -75 375
-224 53 -117 53 -117 59 -801 l6 -640 193 -3 193 -2 -3 692 c-4 680 -4 694
-26 773 -29 103 -88 226 -141 292 -148 184 -426 276 -686 228z"/>
<path d="M33040 17175 c-164 -27 -329 -96 -449 -190 -195 -150 -319 -357 -367
-613 -19 -100 -21 -309 -4 -402 44 -248 166 -463 345 -606 331 -266 859 -296
1226 -72 78 48 269 223 269 247 0 7 -128 113 -258 215 -10 7 -17 5 -24 -9 -20
-38 -145 -150 -209 -188 -109 -64 -183 -82 -339 -82 -120 1 -143 4 -208 27
-160 58 -279 158 -351 297 -37 71 -70 181 -71 234 0 16 43 17 769 17 l768 0 7
48 c9 67 -10 289 -33 386 -85 358 -303 587 -636 672 -127 31 -311 40 -435 19z
m319 -310 c219 -52 351 -216 387 -477 l6 -48 -576 0 -577 0 6 38 c23 134 108
282 209 363 70 57 163 104 242 123 78 19 224 19 303 1z"/>
<path d="M35361 17179 c-170 -30 -353 -159 -445 -313 -20 -33 -36 -58 -36 -55
-1 2 -5 73 -10 158 -5 84 -13 158 -18 163 -4 4 -87 7 -183 6 l-174 -3 3 -30
c2 -16 5 -454 8 -973 l6 -942 191 2 192 3 5 595 c6 662 3 631 78 775 70 133
196 228 340 255 55 11 238 10 282 -1 11 -3 16 7 20 37 5 38 34 -29 351 -810
l347 -851 205 -3 c189 -2 207 -1 215 15 13 24 763 1893 770 1916 4 16 -10 17
-196 17 -148 0 -202 -3 -209 -12 -5 -7 -133 -341 -283 -743 -150 -401 -278
-740 -284 -752 -10 -20 -46 71 -285 715 -151 405 -281 749 -288 765 l-14 27
-159 0 c-130 0 -160 3 -160 14 0 8 -8 17 -17 21 -30 11 -195 15 -252 4z"/>
<path d="M39059 17175 c-103 -16 -192 -45 -274 -88 -79 -41 -203 -165 -238
-237 -75 -156 -77 -345 -5 -482 76 -143 205 -227 453 -293 342 -92 458 -137
513 -200 84 -95 59 -269 -51 -343 -82 -56 -128 -67 -282 -67 -129 1 -146 3
-209 28 -93 37 -195 107 -255 174 -46 52 -52 55 -68 42 -56 -47 -230 -194
-242 -205 -12 -11 -9 -19 19 -51 119 -137 296 -235 514 -285 120 -28 353 -30
470 -4 213 47 356 135 449 277 54 82 79 167 85 289 7 173 -28 272 -137 380
-104 102 -232 160 -521 235 -302 79 -394 128 -421 227 -47 175 105 308 354
308 147 0 274 -54 380 -161 37 -38 70 -69 73 -69 12 0 254 212 254 223 0 6
-35 46 -78 88 -62 61 -97 86 -173 123 -183 89 -414 123 -610 91z"/>
<path d="M26440 16165 l0 -975 190 0 190 0 0 975 0 975 -190 0 -190 0 0 -975z"/>
<path d="M37725 17128 c-3 -7 -4 -445 -3 -973 l3 -960 190 0 190 0 0 970 0
970 -188 3 c-144 2 -189 0 -192 -10z"/>
</g>
</svg>
